<?xml version="1.0" standalone="no"?>
<!DOCTYPE svg PUBLIC "-//W3C//DTD SVG 20010904//EN"
 "http://www.w3.org/TR/2001/REC-SVG-20010904/DTD/svg10.dtd">
<svg version="1.0" xmlns="http://www.w3.org/2000/svg"
 width="1024.000000pt" height="1024.000000pt" viewBox="0 0 1024.000000 1024.000000"
 preserveAspectRatio="xMidYMid meet">

<g transform="translate(0.000000,1024.000000) scale(0.100000,-0.100000)"
fill="#000000" stroke="none">
<path d="M5642 7909 c-35 -4 -98 -16 -140 -26 -76 -18 -76 -18 -32 -20 185
-10 346 -26 437 -44 329 -62 621 -184 902 -376 359 -244 657 -585 736 -841 7
-23 37 -70 66 -105 74 -86 242 -279 615 -707 466 -533 513 -589 525 -634 15
-56 36 -83 86 -113 48 -28 47 -21 22 -115 -18 -70 -105 -112 -229 -112 -88 1
-159 21 -245 68 l-62 34 -289 -74 c-364 -93 -486 -111 -645 -96 -331 33 -566
180 -708 442 -44 82 -87 228 -97 329 -15 145 -58 -100 -51 -294 4 -141 25
-222 87 -345 56 -112 179 -236 285 -289 l44 -22 3 -597 3 -597 34 -95 c18 -52
43 -117 55 -144 l22 -50 45 70 c81 122 136 255 170 409 18 78 21 139 26 473
l6 382 34 0 c30 0 34 -3 28 -17 -4 -10 -9 -77 -12 -150 -6 -139 2 -207 38
-323 27 -87 111 -262 120 -253 4 5 28 49 52 98 50 100 91 221 137 405 52 205
100 277 200 299 30 6 109 28 174 49 l120 38 85 -36 c83 -34 90 -35 216 -35
127 0 132 1 203 34 46 22 88 51 116 81 49 53 66 81 91 160 14 43 30 66 76 108
84 77 122 157 127 272 4 78 2 94 -21 142 -14 29 -67 101 -118 159 -52 58 -220
249 -374 425 -153 175 -349 398 -435 494 -238 268 -243 276 -274 365 -105 305
-418 649 -777 855 -295 169 -631 280 -969 320 -98 12 -416 11 -508 -1z"/>
<path d="M5265 7729 c-148 -11 -356 -53 -477 -94 -96 -33 -302 -125 -295 -132
2 -1 38 6 79 16 143 37 336 54 528 48 197 -7 318 -23 500 -67 540 -132 1098
-555 1324 -1007 l26 -52 39 14 c21 7 112 30 202 50 90 20 166 39 168 41 9 9
-85 174 -161 281 -95 134 -293 345 -413 438 -444 347 -971 507 -1520 464z"/>
<path d="M5444 6871 c20 -323 138 -599 356 -830 l69 -74 -111 -126 c-61 -69
-154 -173 -208 -231 -53 -58 -158 -174 -234 -257 l-138 -153 -481 -1 c-265 -1
-1063 -5 -1774 -8 -1284 -6 -1292 -6 -1319 -27 -103 -77 -103 -211 0 -288 27
-21 38 -21 959 -26 l932 -5 0 -215 0 -214 -580 3 c-702 3 -873 -3 -917 -33
-46 -31 -70 -68 -75 -119 -7 -59 23 -123 74 -157 l37 -25 733 -3 733 -2 0
-205 0 -205 -552 0 c-517 0 -556 -2 -594 -19 -122 -55 -133 -211 -20 -295 27
-20 41 -21 594 -26 l567 -5 3 -257 2 -258 284 0 283 0 -20 -57 c-57 -168 -17
-339 111 -471 245 -253 677 -140 768 202 24 88 15 215 -21 309 -7 16 10 17
263 17 l270 0 -19 -50 c-25 -66 -34 -171 -20 -245 24 -129 123 -261 242 -323
172 -90 392 -52 534 92 126 128 165 298 107 469 l-19 57 294 0 294 0 -3 248
-3 247 -34 55 c-19 30 -66 111 -106 180 -195 340 -392 683 -434 755 -26 44
-66 113 -90 152 l-42 73 -62 -53 c-34 -28 -90 -74 -123 -101 -58 -47 -61 -51
-50 -75 13 -31 107 -201 299 -546 77 -137 168 -302 202 -365 35 -63 75 -135
89 -160 14 -25 26 -51 26 -57 0 -10 -275 -13 -1340 -13 l-1340 0 0 865 0 865
485 0 485 0 0 -328 0 -327 85 -85 85 -85 85 85 85 84 2 326 3 325 354 5 354 5
-89 120 c-144 193 -140 186 -122 199 8 6 88 95 179 197 90 102 237 266 326
365 89 98 171 191 182 206 l21 27 -82 43 c-154 80 -300 252 -367 432 l-28 74
76 -62 c173 -144 347 -242 506 -288 64 -18 105 -22 202 -22 67 0 126 3 129 7
11 11 -34 102 -98 197 -66 100 -199 231 -295 294 -76 48 -215 113 -313 144
-89 29 -155 44 -365 87 -99 20 -204 45 -234 55 l-54 18 7 -107z m-907 -4151
c53 -24 83 -70 83 -129 0 -37 -6 -49 -39 -82 -47 -48 -114 -56 -172 -22 -85
50 -76 199 14 238 43 19 64 18 114 -5z m1357 6 c94 -39 122 -160 51 -226 -38
-36 -128 -40 -175 -8 -107 72 -55 238 78 247 7 1 28 -5 46 -13z"/>
<path d="M7615 5961 c-108 -27 -162 -104 -153 -217 14 -173 227 -235 345 -101
56 64 64 136 23 217 -39 76 -135 121 -215 101z"/>
<path d="M4270 3894 l0 -494 325 0 325 0 0 256 0 257 -125 128 -124 129 -3
107 -3 108 -197 1 -198 1 0 -493z"/>
<path d="M5323 4383 l-33 -4 0 -106 0 -105 -120 -125 -120 -125 0 -259 0 -259
325 0 325 0 0 489 0 489 -31 6 c-33 6 -291 6 -346 -1z"/>
<path d="M1863 3012 c-44 -24 -81 -76 -89 -127 -8 -57 21 -123 72 -161 l37
-29 566 -3 566 -2 45 22 c51 26 84 70 95 124 10 54 -36 141 -90 171 l-40 23
-565 -1 c-514 0 -568 -1 -597 -17z"/>
</g>
</svg>
